<svg xmlns="http://www.w3.org/2000/svg" xmlns:xlink="http://www.w3.org/1999/xlink" width="55" height="55" viewBox="0 0 55 55"><defs><path id="o5goa" d="M658 5882.5c0 15.164-12.337 27.5-27.5 27.5s-27.5-12.336-27.5-27.5 12.337-27.5 27.5-27.5 27.5 12.336 27.5 27.5zm-13.874-11.147l-16.466 18.154-9.92-7.777a1.087 1.087 0 0 0-1.505.164 1.036 1.036 0 0 0 .167 1.476l10.714 8.4c.197.154.434.23.67.23.295 0 .59-.12.8-.353l17.143-18.9a1.034 1.034 0 0 0-.089-1.48 1.086 1.086 0 0 0-1.514.086z"/></defs><g><g transform="translate(-603 -5855)"><g><use fill="#98e162" xlink:href="#o5goa"/></g></g></g></svg>