<svg xmlns="http://www.w3.org/2000/svg" xmlns:xlink="http://www.w3.org/1999/xlink" width="28" height="28" viewBox="0 0 28 28"><defs><path id="vwaza" d="M745.995 463.186c.998 0 1.809.811 1.809 1.809 0 .998-.811 1.809-1.809 1.809a1.811 1.811 0 0 1-1.809-1.809c0-.998.811-1.809 1.809-1.809zM746 468c1.654 0 3-1.346 3-3s-1.346-3-3-3-3 1.346-3 3 1.346 3 3 3z"/><path id="vwazb" d="M759.39 464.39h-2.418c-.307-5.575-4.787-10.055-10.362-10.362v-2.418a.61.61 0 0 0-1.22 0v3.01c0 .338.273.611.61.611 5.387 0 9.769 4.382 9.769 9.769 0 5.387-4.382 9.769-9.769 9.769-5.387 0-9.769-4.382-9.769-9.769a9.825 9.825 0 0 1 5.558-8.817.61.61 0 1 0-.527-1.101 11.014 11.014 0 0 0-4.512 3.982 10.941 10.941 0 0 0-1.72 5.326h-2.42a.61.61 0 0 0 0 1.22h2.418c.307 5.575 4.787 10.055 10.362 10.362v2.418a.61.61 0 0 0 1.22 0v-2.418c5.575-.307 10.055-4.787 10.362-10.362h2.418a.61.61 0 0 0 0-1.22z"/></defs><g><g transform="translate(-732 -451)"><g><use fill="#fff" xlink:href="#vwaza"/></g><g><use fill="#fff" xlink:href="#vwazb"/></g></g></g></svg>