<svg xmlns="http://www.w3.org/2000/svg" xmlns:xlink="http://www.w3.org/1999/xlink" width="56" height="56" viewBox="0 0 56 56"><defs><path id="tfj8a" d="M597.03 254.675c-.636 1.012-1.77 1.64-3.03 1.64-1.26 0-2.394-.628-3.03-1.64zM594 258c2.183 0 4.11-1.275 4.909-3.248.16-.393.107-.837-.138-1.187a1.34 1.34 0 0 0-1.1-.565h-7.343c-.44 0-.85.211-1.099.565-.245.35-.297.794-.138 1.187.799 1.973 2.726 3.248 4.91 3.248z"/><path id="tfj8b" d="M600.954 269.72l-4.335-2.074a14.368 14.368 0 0 0 6.996-3.41l1.37.353c-1.367 1.898-3.214 4.157-4.031 5.13zm-14.05-5.71l1.881-.997a.856.856 0 0 0 .42-.512l.52-1.752c.427.19.862.346 1.301.456 1.192.297 2.053.469 2.927.469.866 0 1.718-.168 2.895-.457l.108-.027c.447-.11.89-.267 1.324-.46l.525 1.771c.065.22.217.404.42.512l1.882.998a12.71 12.71 0 0 1-7.102 2.15c-2.56 0-5.018-.753-7.1-2.15zm.138 5.71c-.817-.974-2.662-3.233-4.027-5.13l1.368-.355a14.345 14.345 0 0 0 6.988 3.411zm-1.896-17.224a6.734 6.734 0 0 1-.037-.226l-.01-.061a6.004 6.004 0 0 1-.025-.215l-.01-.104a5.226 5.226 0 0 1-.02-.446v-.55-4.289h2.722a.846.846 0 0 0-.193.537v.685a.87.87 0 0 0 .006.098v.68c0 .472.386.855.862.855a.858.858 0 0 0 .862-.855v-.684a.868.868 0 0 0-.006-.098v-.68a.846.846 0 0 0-.192-.538h9.788a.845.845 0 0 0-.192.537v.685c0 .033.002.066.006.098v.68c0 .472.386.855.862.855a.863.863 0 0 0 .77-.474.844.844 0 0 0 .092-.38v-.685a.87.87 0 0 0-.006-.098v-.68a.846.846 0 0 0-.193-.538h2.734v4.818c0 .093-.003.187-.008.281-.003.057-.008.115-.013.174l-.01.103a5.89 5.89 0 0 1-.027.22l-.008.061a6.677 6.677 0 0 1-.04.23c-.445 2.375-2.273 4.895-4.431 6.23a.851.851 0 0 0-.07.037 6.628 6.628 0 0 1-1.82.775l-.107.026c-1.048.258-1.79.408-2.48.408-.697 0-1.418-.147-2.505-.418a6.621 6.621 0 0 1-1.801-.771.884.884 0 0 0-.068-.036c-2.16-1.34-3.991-3.87-4.432-6.247zm-2.805-7.599h-1.413a.077.077 0 0 1-.077-.076v-.979c0-.042.034-.076.077-.076a.866.866 0 0 0 .279-.047c.087.03.181.047.279.047h4.506a.857.857 0 0 0 .861-.854.858.858 0 0 0-.861-.853h-3.645v-.321c0-4.499 3.047-8.322 7.362-9.401l.995 7.794.002.013c.01.076.026.15.043.224l.01.04c.017.07.037.14.06.208l.014.04c.024.07.05.138.081.205l.003.006c.03.065.062.13.097.192l.02.036c.035.061.072.12.112.179l.024.035c.042.06.085.117.13.173l.008.008c.045.054.092.105.14.156l.029.029a2.83 2.83 0 0 0 .357.304l.012.007c.035.025.07.05.106.073h-2.774a.857.857 0 0 0-.861.853c0 .472.385.854.861.854h17.336a.866.866 0 0 0 .279-.047c.088.03.181.047.279.047.042 0 .077.034.077.076v.98a.077.077 0 0 1-.077.075h-24.73zm.95 5.138a.51.51 0 0 1-.514-.509v-2.034c0-.14.058-.267.15-.36.003 0 .004-.002.006-.004l.009-.007a.541.541 0 0 1 .07-.056l.019-.01a.504.504 0 0 1 .067-.034l.041-.013c.017-.005.034-.012.052-.015a.517.517 0 0 1 .1-.01h.03v3.052zm8.078-19.204a.37.37 0 0 1 .281-.124h4.71a.37.37 0 0 1 .28.124c.038.042.1.133.083.261l-.015.117-.591 4.623-.521 4.077c-.057.38-.33.691-.687.822-.12.044-.248.068-.382.068h-1.045c-.134 0-.262-.024-.381-.068a1.053 1.053 0 0 1-.687-.822l-.357-2.788-.756-5.912-.015-.117a.329.329 0 0 1 .083-.261zm5.485 10.443c.04-.058.077-.118.112-.179l.02-.036a2.68 2.68 0 0 0 .097-.192l.003-.006c.03-.067.056-.135.081-.205l.014-.04c.023-.068.043-.137.06-.207l.01-.041a2.66 2.66 0 0 0 .043-.224l.002-.013.995-7.794c4.315 1.08 7.361 4.902 7.361 9.4v.322h-9.604a3.02 3.02 0 0 0 .106-.073l.011-.007c.06-.042.116-.087.17-.133l.034-.028c.053-.046.105-.094.154-.143l.028-.03c.049-.05.096-.101.141-.155l.007-.008a2.73 2.73 0 0 0 .155-.208zm8.06 8.728a.513.513 0 0 1-.205.043h-.03v-3.062h.032a.51.51 0 0 1 .098.01c.018.004.036.01.054.016l.039.012a.52.52 0 0 1 .068.035l.017.01a.524.524 0 0 1 .235.427v2.042a.511.511 0 0 1-.308.467zm17.077 32.423l-.815-9.296c-.328-3.745-2.978-6.89-6.594-7.824l-7.83-2.023a.861.861 0 0 0-.135-.049l-3.024-.781a.867.867 0 0 0-.814.21c-.07.065-.139.13-.21.194l-2.221-1.18-.54-1.817c2.258-1.561 4.069-4.118 4.662-6.694a5.51 5.51 0 0 0 1.449-1.777 2.21 2.21 0 0 0 1.026-1.861v-2.035c0-.315-.068-.615-.188-.887h.315c.993 0 1.8-.8 1.8-1.783v-.98a1.79 1.79 0 0 0-1.497-1.756v-.348c0-2.73-.988-5.372-2.784-7.44a11.543 11.543 0 0 0-6.204-3.69 2.038 2.038 0 0 0-.463-.906 2.105 2.105 0 0 0-1.574-.702h-4.7c-.604 0-1.177.256-1.573.702a2.036 2.036 0 0 0-.464.906 11.542 11.542 0 0 0-6.204 3.69 11.346 11.346 0 0 0-2.784 7.44v.348a1.79 1.79 0 0 0-1.497 1.756v.98c0 .983.807 1.783 1.8 1.783h.315c-.12.272-.188.572-.188.887v2.034c0 .78.41 1.467 1.026 1.861a5.512 5.512 0 0 0 1.443 1.774c.588 2.58 2.4 5.149 4.662 6.716l-.534 1.8-2.222 1.179c-.07-.064-.14-.129-.209-.195a.867.867 0 0 0-.814-.21l-3.024.782a.865.865 0 0 0-.135.048l-7.83 2.024c-3.616.935-6.266 4.079-6.594 7.824l-.15 1.711c-.041.47.31.884.783.925a.859.859 0 0 0 .933-.777l.15-1.711c.265-3.028 2.4-5.567 5.312-6.32l7.384-1.908c.91 1.306 2.082 2.806 2.954 3.892a116.712 116.712 0 0 0 1.82 2.209c.222.258.413.48.816.48.163 0 .32-.045.453-.127l6.72-3.213 6.721 3.213c.13.08.282.125.44.128h.016c.401 0 .601-.234.813-.481a116.646 116.646 0 0 0 1.82-2.208c.873-1.087 2.046-2.587 2.955-3.893l7.384 1.908c2.912.753 5.046 3.293 5.312 6.32l.815 9.296a.663.663 0 0 1-.665.719h-7.029v-8.55a.858.858 0 0 0-.861-.855.857.857 0 0 0-.861.854v8.55h-33.717v-8.55a.858.858 0 0 0-.862-.854.858.858 0 0 0-.861.854v8.55h-7.029a.662.662 0 0 1-.665-.718l.387-4.416a.856.856 0 0 0-.783-.924.86.86 0 0 0-.933.776l-.387 4.416a2.36 2.36 0 0 0 .62 1.806 2.406 2.406 0 0 0 1.761.768h7.868l.023.001.022-.001h35.395l.022.001.022-.001h7.868c.668 0 1.31-.28 1.762-.768.451-.488.677-1.146.62-1.806z"/><path id="tfj8c" d="M602.272 275.823a.831.831 0 0 0-.84-.823h-1.863c-.865 0-1.569.69-1.569 1.538v2.924c0 .848.704 1.538 1.569 1.538h6.862c.865 0 1.569-.69 1.569-1.538v-2.924c0-.848-.704-1.538-1.569-1.538h-1.864a.831.831 0 0 0-.84.823c0 .455.376.823.84.823h1.754v2.708h-6.642v-2.708h1.753c.464 0 .84-.368.84-.823z"/></defs><g><g transform="translate(-566 -229)"><g><use fill="#fff" xlink:href="#tfj8a"/></g><g><use fill="#fff" xlink:href="#tfj8b"/></g><g><use fill="#fff" xlink:href="#tfj8c"/></g></g></g></svg>